<mxfile host="65bd71144e">
    <diagram id="PHrOATVCtzZFzN0YDZU-" name="Page-1">
        <mxGraphModel dx="1005" dy="2774" grid="1" gridSize="10" guides="1" tooltips="1" connect="1" arrows="1" fold="1" page="1" pageScale="1" pageWidth="827" pageHeight="1169" math="0" shadow="0">
            <root>
                <mxCell id="0"/>
                <mxCell id="1" parent="0"/>
                <mxCell id="3" value="" style="endArrow=classic;html=1;exitX=0.5;exitY=1;exitDx=0;exitDy=0;" edge="1" parent="1">
                    <mxGeometry width="50" height="50" relative="1" as="geometry">
                        <mxPoint x="359.75" y="-2190" as="sourcePoint"/>
                        <mxPoint x="359.75" y="-2130" as="targetPoint"/>
                        <Array as="points">
                            <mxPoint x="359.75" y="-2150"/>
                        </Array>
                    </mxGeometry>
                </mxCell>
                <mxCell id="4" value="Initialize Vars" style="rounded=0;whiteSpace=wrap;html=1;" vertex="1" parent="1">
                    <mxGeometry x="300" y="-2120" width="120" height="60" as="geometry"/>
                </mxCell>
                <mxCell id="5" value="" style="endArrow=classic;html=1;" edge="1" parent="1">
                    <mxGeometry width="50" height="50" relative="1" as="geometry">
                        <mxPoint x="360" y="-2050" as="sourcePoint"/>
                        <mxPoint x="359.75" y="-2000" as="targetPoint"/>
                        <Array as="points">
                            <mxPoint x="359.75" y="-2020"/>
                        </Array>
                    </mxGeometry>
                </mxCell>
                <mxCell id="12" value="Pick size" style="rounded=0;whiteSpace=wrap;html=1;" vertex="1" parent="1">
                    <mxGeometry x="300" y="-1990" width="120" height="60" as="geometry"/>
                </mxCell>
                <mxCell id="13" value="" style="endArrow=classic;html=1;exitX=0.5;exitY=1;exitDx=0;exitDy=0;" edge="1" parent="1">
                    <mxGeometry width="50" height="50" relative="1" as="geometry">
                        <mxPoint x="359.75" y="-1920" as="sourcePoint"/>
                        <mxPoint x="359.75" y="-1870" as="targetPoint"/>
                        <Array as="points">
                            <mxPoint x="359.75" y="-1880"/>
                        </Array>
                    </mxGeometry>
                </mxCell>
                <mxCell id="14" value="Choose Flavour" style="rounded=0;whiteSpace=wrap;html=1;" vertex="1" parent="1">
                    <mxGeometry x="300" y="-1860" width="120" height="60" as="geometry"/>
                </mxCell>
                <mxCell id="15" value="" style="endArrow=classic;html=1;exitX=0.5;exitY=1;exitDx=0;exitDy=0;" edge="1" parent="1">
                    <mxGeometry width="50" height="50" relative="1" as="geometry">
                        <mxPoint x="361" y="-1790" as="sourcePoint"/>
                        <mxPoint x="361.25" y="-1740" as="targetPoint"/>
                        <Array as="points">
                            <mxPoint x="361" y="-1750"/>
                        </Array>
                    </mxGeometry>
                </mxCell>
                <mxCell id="19" value="" style="endArrow=classic;html=1;" edge="1" parent="1">
                    <mxGeometry width="50" height="50" relative="1" as="geometry">
                        <mxPoint x="300" y="-1670" as="sourcePoint"/>
                        <mxPoint x="250" y="-1620" as="targetPoint"/>
                        <Array as="points"/>
                    </mxGeometry>
                </mxCell>
                <mxCell id="20" value="" style="endArrow=classic;html=1;" edge="1" parent="1">
                    <mxGeometry width="50" height="50" relative="1" as="geometry">
                        <mxPoint x="420" y="-1670" as="sourcePoint"/>
                        <mxPoint x="476" y="-1620" as="targetPoint"/>
                        <Array as="points"/>
                    </mxGeometry>
                </mxCell>
                <mxCell id="22" value="No sugar" style="rounded=0;whiteSpace=wrap;html=1;" vertex="1" parent="1">
                    <mxGeometry x="440" y="-1610" width="120" height="60" as="geometry"/>
                </mxCell>
                <mxCell id="24" value="Extra Sugar" style="rounded=0;whiteSpace=wrap;html=1;" vertex="1" parent="1">
                    <mxGeometry x="300" y="-1530" width="120" height="60" as="geometry"/>
                </mxCell>
                <mxCell id="26" value="No ice" style="rounded=0;whiteSpace=wrap;html=1;" vertex="1" parent="1">
                    <mxGeometry x="160" y="-1610" width="120" height="60" as="geometry"/>
                </mxCell>
                <mxCell id="29" value="" style="endArrow=classic;html=1;" edge="1" parent="1">
                    <mxGeometry width="50" height="50" relative="1" as="geometry">
                        <mxPoint x="360" y="-1640" as="sourcePoint"/>
                        <mxPoint x="360" y="-1550" as="targetPoint"/>
                    </mxGeometry>
                </mxCell>
                <mxCell id="32" value="" style="endArrow=classic;html=1;exitX=0.5;exitY=1;exitDx=0;exitDy=0;" edge="1" parent="1">
                    <mxGeometry width="50" height="50" relative="1" as="geometry">
                        <mxPoint x="499.5" y="-1550" as="sourcePoint"/>
                        <mxPoint x="430" y="-1340" as="targetPoint"/>
                        <Array as="points">
                            <mxPoint x="500" y="-1440"/>
                        </Array>
                    </mxGeometry>
                </mxCell>
                <mxCell id="33" value="" style="endArrow=classic;html=1;exitX=0.5;exitY=1;exitDx=0;exitDy=0;" edge="1" parent="1">
                    <mxGeometry width="50" height="50" relative="1" as="geometry">
                        <mxPoint x="219.5" y="-1550" as="sourcePoint"/>
                        <mxPoint x="290" y="-1340" as="targetPoint"/>
                        <Array as="points">
                            <mxPoint x="220" y="-1450"/>
                        </Array>
                    </mxGeometry>
                </mxCell>
                <mxCell id="37" value="" style="endArrow=classic;html=1;exitX=0.5;exitY=1;exitDx=0;exitDy=0;" edge="1" parent="1">
                    <mxGeometry width="50" height="50" relative="1" as="geometry">
                        <mxPoint x="359.5" y="-1460" as="sourcePoint"/>
                        <mxPoint x="360" y="-1380" as="targetPoint"/>
                        <Array as="points">
                            <mxPoint x="359.5" y="-1420"/>
                        </Array>
                    </mxGeometry>
                </mxCell>
                <mxCell id="40" value="" style="endArrow=classic;html=1;exitX=0.5;exitY=1;exitDx=0;exitDy=0;" edge="1" parent="1">
                    <mxGeometry width="50" height="50" relative="1" as="geometry">
                        <mxPoint x="359.75" y="-1140" as="sourcePoint"/>
                        <mxPoint x="360.25" y="-1060" as="targetPoint"/>
                        <Array as="points">
                            <mxPoint x="359.75" y="-1100"/>
                        </Array>
                    </mxGeometry>
                </mxCell>
                <mxCell id="41" value="" style="endArrow=classic;html=1;exitX=0.5;exitY=1;exitDx=0;exitDy=0;" edge="1" parent="1">
                    <mxGeometry width="50" height="50" relative="1" as="geometry">
                        <mxPoint x="359.75" y="-1300" as="sourcePoint"/>
                        <mxPoint x="360.25" y="-1220" as="targetPoint"/>
                        <Array as="points">
                            <mxPoint x="359.75" y="-1260"/>
                        </Array>
                    </mxGeometry>
                </mxCell>
                <mxCell id="43" value="Show order info" style="rounded=0;whiteSpace=wrap;html=1;" vertex="1" parent="1">
                    <mxGeometry x="300" y="-1050" width="120" height="60" as="geometry"/>
                </mxCell>
                <mxCell id="44" value="" style="endArrow=classic;html=1;exitX=0.5;exitY=1;exitDx=0;exitDy=0;" edge="1" parent="1">
                    <mxGeometry width="50" height="50" relative="1" as="geometry">
                        <mxPoint x="359.5" y="-980" as="sourcePoint"/>
                        <mxPoint x="360" y="-900" as="targetPoint"/>
                        <Array as="points">
                            <mxPoint x="359.5" y="-940"/>
                        </Array>
                    </mxGeometry>
                </mxCell>
                <mxCell id="45" value="Update total price" style="rounded=0;whiteSpace=wrap;html=1;" vertex="1" parent="1">
                    <mxGeometry x="300" y="-1210" width="120" height="60" as="geometry"/>
                </mxCell>
                <mxCell id="46" value="Place order" style="rounded=0;whiteSpace=wrap;html=1;" vertex="1" parent="1">
                    <mxGeometry x="300" y="-880" width="120" height="60" as="geometry"/>
                </mxCell>
                <mxCell id="48" value="" style="endArrow=classic;html=1;exitX=0.5;exitY=1;exitDx=0;exitDy=0;" edge="1" parent="1">
                    <mxGeometry width="50" height="50" relative="1" as="geometry">
                        <mxPoint x="359.5" y="-810" as="sourcePoint"/>
                        <mxPoint x="360" y="-730" as="targetPoint"/>
                        <Array as="points">
                            <mxPoint x="359.5" y="-770"/>
                        </Array>
                    </mxGeometry>
                </mxCell>
                <mxCell id="59" value="Decision" style="rhombus;whiteSpace=wrap;html=1;" vertex="1" parent="1">
                    <mxGeometry x="296.25" y="-1730" width="130" height="80" as="geometry"/>
                </mxCell>
                <mxCell id="60" value="Start" style="ellipse;whiteSpace=wrap;html=1;" vertex="1" parent="1">
                    <mxGeometry x="298.75" y="-2260" width="122.5" height="60" as="geometry"/>
                </mxCell>
                <mxCell id="61" value="End" style="ellipse;whiteSpace=wrap;html=1;" vertex="1" parent="1">
                    <mxGeometry x="296.25" y="-710" width="122.5" height="60" as="geometry"/>
                </mxCell>
                <mxCell id="63" value="Enter Quantity" style="shape=parallelogram;perimeter=parallelogramPerimeter;whiteSpace=wrap;html=1;fixedSize=1;" vertex="1" parent="1">
                    <mxGeometry x="301.25" y="-1370" width="120" height="60" as="geometry"/>
                </mxCell>
            </root>
        </mxGraphModel>
    </diagram>
</mxfile>